{"title":"Shaft.2000.SWESUB.DVDRip.XviD.AC3.(5.1)-Zen_Bud","uid":5718901,"size":1468860220,"categoryP":"video","categoryS":"movies","magnet":"?xt=urn:btih:8a82dc5868f51955ac1d9e140e24921bc8af7e49&amp;dn=Shaft.2000.SWESUB.DVDRip.XviD.AC3.%285.1%29-Zen_Bud&amp;tr=udp%3A%2F%2Ftracker.openbittorrent.com%3A80&amp;tr=udp%3A%2F%2Fopen.demonii.com%3A1337&amp;tr=udp%3A%2F%2Ftracker.coppersurfer.tk%3A6969&amp;tr=udp%3A%2F%2Fexodus.desync.com%3A6969","seeders":0,"leechers":1,"uploader":null,"files":1,"time":1280219356,"description":"General\nComplete name                    : Shaft.2000.avi\nFormat                           : AVI\nFile size                        : 1.37 GiB\nDuration                         : 1h 35mn\nOverall bit rate                 : 2 056 Kbps\n\n\nVideo\nID                               : 0\nFormat                           : MPEG-4 Visual\nDuration                         : 1h 35mn\nBit rate                         : 1 598 Kbps\nWidth                            : 720 pixels\nHeight                           : 312 pixels\nDisplay aspect ratio             : 2.35:1\nStream size                      : 1.06 GiB (78%)\nWriting library                  : XviD 1.2.1 (UTC 2008-12-04)\n\nAudio\n\nFormat                           : AC-3\nDuration                         : 1h 35mn\nBit rate                         : 448 Kbps\nChannel(s)                       : 6 channels\nChannel positions                : Front: L C R, Side: L R, LFE\nSampling rate                    : 48.0 KHz\nStream size                      : 305 MiB (22%)","torrent":{"xt":"urn:btih:8a82dc5868f51955ac1d9e140e24921bc8af7e49","amp;dn":"Shaft.2000.SWESUB.DVDRip.XviD.AC3.%285.1%29-Zen_Bud","amp;tr":["udp%3A%2F%2Ftracker.openbittorrent.com%3A80","udp%3A%2F%2Fopen.demonii.com%3A1337","udp%3A%2F%2Ftracker.coppersurfer.tk%3A6969","udp%3A%2F%2Fexodus.desync.com%3A6969"],"infoHash":"8a82dc5868f51955ac1d9e140e24921bc8af7e49","infoHashBuffer":{"type":"Buffer","data":[138,130,220,88,104,245,25,85,172,29,158,20,14,36,146,27,200,175,126,73]},"announce":[],"urlList":[]}}